<svg width="1856" height="1667" xmlns="http://www.w3.org/2000/svg" xmlns:xlink="http://www.w3.org/1999/xlink" xml:space="preserve" overflow="hidden"><defs><clipPath id="clip0"><rect x="2310" y="-22" width="1856" height="1667"/></clipPath></defs><g clip-path="url(#clip0)" transform="translate(-2310 22)"><path d="M3588.11 838.956 3588.11 1155.31 3689.09 1155.31C3716.23 1155.31 3739.85 1145.35 3759.93 1125.42 3780.02 1105.48 3790.07 1081.97 3790.07 1054.87L3790.07 939.932C3790.07 872.615 3756.41 838.956 3689.09 838.956ZM3588.11 381.339 3588.11 697.696 3689.09 697.696C3716.21 697.696 3739.82 687.646 3759.92 667.547 3780.02 647.447 3790.07 623.659 3790.07 596.183L3790.07 481.241C3790.07 454.061 3780.05 430.616 3760.03 410.905 3740 391.194 3716.35 381.339 3689.09 381.339ZM3331.38 239.005 3804.03 239.005C3870.59 239.005 3927.7 262.922 3975.34 310.755 4022.98 358.589 4046.8 415.417 4046.8 481.241L4046.8 539.249C4046.8 610.125 4026.49 665.972 3985.86 706.789 3952.85 739.954 3909.73 756.699 3856.48 757.026L3854.57 756.993 3856.49 757.214C3909.75 764.68 3952.88 788.321 3985.88 828.138 4026.5 877.144 4046.8 933.386 4046.8 996.866L4046.8 1054.87C4046.8 1120.75 4022.81 1177.68 3974.82 1225.67 3926.84 1273.65 3869.91 1297.65 3804.03 1297.65L3331.38 1297.65ZM2428.46 239.005 2685.2 239.005 2685.2 697.696 2887.15 697.696 2887.15 239.005 3143.89 239.005 3143.89 1297.65 2887.15 1297.65 2887.15 838.956 2685.2 838.956 2685.2 1297.65 2428.46 1297.65Z" stroke="#FFFFFF" stroke-width="3" stroke-linecap="butt" stroke-linejoin="round" stroke-miterlimit="10" stroke-opacity="1" fill="none" fill-rule="evenodd"/><text fill="#000000" fill-opacity="0" font-family="Arial,Arial_MSFontService,sans-serif" font-size="1058.64" direction="ltr" writing-mode="lr-tb" x="2428.46" y="1165.32">HB</text></g></svg>