<svg width="1082" height="729" xmlns="http://www.w3.org/2000/svg" xmlns:xlink="http://www.w3.org/1999/xlink" xml:space="preserve" overflow="hidden"><defs><clipPath id="clip0"><rect x="1049" y="513" width="1082" height="729"/></clipPath></defs><g clip-path="url(#clip0)" transform="translate(-1049 -513)"><path d="M1809 851 1968.5 851C2056.59 851 2128 937.633 2128 1044.5 2128 1151.37 2056.59 1238 1968.5 1238L1809 1238Z" fill="#FFC000" fill-rule="evenodd" fill-opacity="1"/><path d="M1808 535 1968 535C2056.37 535 2128 614.917 2128 713.5 2128 812.083 2056.37 892 1968 892L1808 892Z" fill="#FFC000" fill-rule="evenodd" fill-opacity="1"/><path d="M1646 579.501C1646 554.924 1665.92 535 1690.5 535L1868.5 535C1893.08 535 1913 554.924 1913 579.501L1913 1193.5C1913 1218.08 1893.08 1238 1868.5 1238L1690.5 1238C1665.92 1238 1646 1218.08 1646 1193.5Z" fill="#FFC000" fill-rule="evenodd" fill-opacity="1"/><path d="M1696 833 1893 833C2001.8 833 2090 919.409 2090 1026 2090 1132.59 2001.8 1219 1893 1219L1696 1219Z" fill="#FFFFFF" fill-rule="evenodd" fill-opacity="1"/><path d="M1696 516 1878 516C1978.52 516 2060 595.917 2060 694.5 2060 793.083 1978.52 873 1878 873L1696 873Z" fill="#FFFFFF" fill-rule="evenodd" fill-opacity="1"/><path d="M1429 814C1442.26 814 1453 824.744 1453 837.998L1453 933.987C1453 947.24 1442.26 957.984 1429 957.984L1181 957.984C1167.74 957.984 1157 947.24 1157 933.987L1157 837.998C1157 824.744 1167.74 814 1181 814Z" fill="#FFC000" fill-rule="evenodd" fill-opacity="1"/><path d="M1089 558.998C1089 545.744 1099.74 535 1113 535L1208.99 535C1222.24 535 1232.99 545.744 1232.99 558.998L1232.99 1214C1232.99 1227.26 1222.24 1238 1208.99 1238L1113 1238C1099.74 1238 1089 1227.26 1089 1214Z" fill="#FFC000" fill-rule="evenodd" fill-opacity="1"/><path d="M1403 559.167C1403 545.82 1413.82 535 1427.17 535L1523.83 535C1537.18 535 1548 545.82 1548 559.167L1548 1213.83C1548 1227.18 1537.18 1238 1523.83 1238L1427.17 1238C1413.82 1238 1403 1227.18 1403 1213.83Z" fill="#FFC000" fill-rule="evenodd" fill-opacity="1"/><path d="M1395 795C1408.26 795 1419 805.744 1419 818.998L1419 914.987C1419 928.24 1408.26 938.985 1395 938.985L1147 938.985C1133.74 938.985 1123 928.24 1123 914.987L1123 818.998C1123 805.744 1133.74 795 1147 795Z" fill="#FFFFFF" fill-rule="evenodd" fill-opacity="1"/><path d="M1054 540.167C1054 526.82 1064.82 516 1078.17 516L1174.83 516C1188.18 516 1199 526.82 1199 540.167L1199 1194.83C1199 1208.18 1188.18 1219 1174.83 1219L1078.17 1219C1064.82 1219 1054 1208.18 1054 1194.83Z" fill="#FFFFFF" fill-rule="evenodd" fill-opacity="1"/><path d="M1369 539.998C1369 526.744 1379.74 516 1393 516L1488.99 516C1502.24 516 1512.99 526.744 1512.99 539.998L1512.99 1195C1512.99 1208.26 1502.24 1219 1488.99 1219L1393 1219C1379.74 1219 1369 1208.26 1369 1195Z" fill="#FFFFFF" fill-rule="evenodd" fill-opacity="1"/><path d="M1624 539.998C1624 526.744 1634.74 516 1648 516L1743.99 516C1757.24 516 1767.99 526.744 1767.99 539.998L1767.99 1195C1767.99 1208.26 1757.24 1219 1743.99 1219L1648 1219C1634.74 1219 1624 1208.26 1624 1195Z" fill="#FFFFFF" fill-rule="evenodd" fill-opacity="1"/><path d="M1768 626 1860.5 626C1911.59 626 1953 660.25 1953 702.5 1953 744.75 1911.59 779 1860.5 779L1768 779Z" fill="#FFC000" fill-rule="evenodd" fill-opacity="1"/><path d="M1768 939 1865.5 939C1919.35 939 1963 974.37 1963 1018 1963 1061.63 1919.35 1097 1865.5 1097L1768 1097Z" fill="#FFC000" fill-rule="evenodd" fill-opacity="1"/></g></svg>